{"title":"Bloedverwanten (2010) aflevering 9-12 Hornigold TBS","uid":6248424,"size":4509382092,"categoryP":"video","categoryS":"tv_shows","magnet":"?xt=urn:btih:d242fcb4ceaf495db58852a9b71249fc1c641861&amp;dn=Bloedverwanten+%282010%29+aflevering+9-12+Hornigold+TBS&amp;tr=udp%3A%2F%2Ftracker.openbittorrent.com%3A80&amp;tr=udp%3A%2F%2Fopen.demonii.com%3A1337&amp;tr=udp%3A%2F%2Ftracker.coppersurfer.tk%3A6969&amp;tr=udp%3A%2F%2Fexodus.desync.com%3A6969","seeders":1,"leechers":1,"uploader":"Hornigold","files":-1,"time":1300313435,"description":"Bloedverwanten aflevering 9 tot en met 12 (2010)\n\nNederland ~ 50 minuten per aflevering ~ geregisseerd door Frank Krom, Anne van der Linden, Pieter van Rijn  ~ met HenriÃƒÂ«tte Tol, Derek de Lint, Saskia Temmink, Jeroen Spitzenberger e.a.\n\nAls grootaandeelhouder Bennie de Winter van De Winter Flowers sterft, vervalt zijn niet onaanzienlijke vermogen aan zijn dochter Esther. Mocht haar iets overkomen, dan krijgen haar kinderen alles in handen. Esther heeft geen enkele ambitie zich te bemoeien met de zaak. Ze richt zich liever op haar familie. De Winter Flowers wordt al jaren aangestuurd door Anton, de ex-man van Esther. Tijdens hun huwelijk hebben zij drie kinderen gekregen: Iris, een verantwoordelijke, plichtsgetrouwe maar gevoelsarme dochter, de homosexuele en zachtaardige Thomas en Martijn die alles wil en doet, behalve deugen. Anton is hertrouwd met Fien, met wie hij een dochter heeft, Antje, een zoekende ziel met eetproblemen.\n\nBestandsformaat: Video_TS map\nBestandsgrootte: 4,20 GB\nTaal: Nederlands\nOndertitelingen: GEEN\nCategorie : Serie\nDVD5 of DVD9 : DVD5\nBron : Onbekend, waarschijnlijk van TV opgenomen. Kwaliteit is ok, maar geen dvd-kwaliteit.\nMenu: Ja, custom\nExtra's: Nee\nGenre : Drama\nWeblink : http://www.imdb.com/title/tt1464852/\n\nLaatste opmerking: Het kan zijn dat het beeld erg plat is, zet hem dan op 16:9 bij je beeldverhouding en alles is goed.\n\nVideo en audio informatie:\n~~~~~~~~~~~~~~~~~~~~~~\nVideo\nID                               : 224 (0xE0)\nFormat                           : MPEG Video\nFormat version                   : Version 2\nFormat profile                   : Main@Main\nFormat settings, BVOP            : Yes\nFormat settings, Matrix          : Default\nDuration                         : 48mn 14s\nBit rate mode                    : Variable\nBit rate                         : 2 652 Kbps\nNominal bit rate                 : 9 544 Kbps\nWidth                            : 704 pixels\nHeight                           : 576 pixels\nDisplay aspect ratio             : 16:9\nFrame rate                       : 25.000 fps\nStandard                         : PAL\nColor space                      : YUV\nChroma subsampling               : 4:2:0\nBit depth                        : 8 bits\nScan type                        : Progressive\nCompression mode                 : Lossy\nBits/(Pixel*Frame)               : 0.262\nStream size                      : 915 MiB (89%)\n\nAudio\nID                               : 189 (0xBD)-128 (0x80)\nFormat                           : AC-3\nFormat/Info                      : Audio Coding 3\nMode extension                   : CM (complete main)\nMuxing mode                      : DVD-Video\nDuration                         : 48mn 14s\nBit rate mode                    : Constant\nBit rate                         : 256 Kbps\nChannel(s)                       : 2 channels\nChannel positions                : Front: L R\nSampling rate                    : 48.0 KHz\nBit depth                        : 16 bits\nCompression mode                 : Lossy\nStream size                      : 88.3 MiB (9%)\n\n~~~~~~~~~~~~~~~\nHornigold TBS\n~~~~~~~~~~~~~~~","torrent":{"xt":"urn:btih:d242fcb4ceaf495db58852a9b71249fc1c641861","amp;dn":"Bloedverwanten+%282010%29+aflevering+9-12+Hornigold+TBS","amp;tr":["udp%3A%2F%2Ftracker.openbittorrent.com%3A80","udp%3A%2F%2Fopen.demonii.com%3A1337","udp%3A%2F%2Ftracker.coppersurfer.tk%3A6969","udp%3A%2F%2Fexodus.desync.com%3A6969"],"infoHash":"d242fcb4ceaf495db58852a9b71249fc1c641861","infoHashBuffer":{"type":"Buffer","data":[210,66,252,180,206,175,73,93,181,136,82,169,183,18,73,252,28,100,24,97]},"announce":[],"urlList":[]}}